<?xml version="1.0" encoding="utf-8"?>
<!-- Generator: Adobe Illustrator 28.3.0, SVG Export Plug-In . SVG Version: 6.00 Build 0)  -->
<svg version="1.1" id="Capa_1" xmlns="http://www.w3.org/2000/svg" xmlns:xlink="http://www.w3.org/1999/xlink" x="0px" y="0px"
 viewBox="0 0 128 128" style="enable-background:new 0 0 128 128;" xml:space="preserve">
<style type="text/css">
.st0{fill:#4A4A4A;}
.st1{fill:#F5C6E0;}
.st2{fill:#222221;}
</style>
<circle class="st0" cx="64" cy="64" r="64"/>
<g>
<g>
<path class="st1" d="M61.46,45.87c-0.18-4.63-0.8-9.23-1.87-13.73c-0.87-3.66-1.81-8-4.57-10.76c-2.67-2.68-6.67-2.74-10.11-1.8
c-3.72,1.02-7.09,3.16-10,5.64c-2.95,2.52-5.47,5.49-7.43,8.84c-1.87,3.19-3.51,7.48-1.24,10.9c1.81,2.74,5.27,3.71,8.3,4.39
c3.58,0.8,7.12,1.58,10.47,3.11c3.25,1.48,6.3,3.63,8.34,6.61c2.39,3.47,3.17,7.84,2.91,11.99c-0.29,4.6-1.85,9.02-3.57,13.25
c-1.64,4.03-3.41,8.1-6.1,11.55c-2.34,3-5.57,5.8-9.41,6.53c-2.2,0.42-4.62-0.08-6-1.98c-1.36-1.87-0.66-4.09,0.55-5.83
c4.47-6.38,11.58-10.85,18.53-14.07c15.11-7.01,32.1-8.84,46.92-16.59c1.8-0.94,3.55-1.97,5.25-3.08
c0.48-0.31,0.24-0.61-0.19-0.72c-0.58-0.14-1.36,0.18-1.83,0.49c-14.32,9.31-31.83,11.21-47.43,17.52
c-7.17,2.9-14.1,6.68-19.69,12.09c-2.37,2.29-6.6,6.16-5.23,9.88c1.44,3.92,6.39,4.03,9.78,3.21c8.17-1.99,13.01-9.21,16.18-16.46
c3.37-7.69,6.79-16.73,3.68-25.07c-2.67-7.15-9.81-10.78-16.79-12.59c-3.33-0.87-7.12-1.13-10.07-3.05
c-3.72-2.42-3.57-6.71-1.9-10.39c1.66-3.65,4.28-6.94,7.22-9.64c2.83-2.6,6.48-5.32,10.4-5.82c4.38-0.56,7.19,2.58,8.63,6.35
c1.58,4.13,2.48,8.62,3.08,12.99c0.31,2.29,0.5,4.6,0.6,6.91C58.9,47.17,61.5,46.71,61.46,45.87L61.46,45.87z"/>
</g>
<g>
<path class="st1" d="M77.49,35.67c-2.19,3.28-2.32,7.51-2.72,11.32C74.32,51.25,74,55.53,73.7,59.8
c-0.6,8.53-1.12,17.08-2.46,25.53c-0.76,4.83-1.8,9.6-3.23,14.28c-0.26,0.85,2.32,0.48,2.59-0.35c0.48-1.49,0.96-2.99,1.43-4.48
c0.27-0.84-2.32-0.49-2.59,0.35c-0.48,1.49-0.96,2.99-1.43,4.48c0.86-0.12,1.72-0.23,2.59-0.35c4.99-16.31,4.93-33.48,6.52-50.32
c0.22-2.28,0.45-4.57,0.76-6.84c0.3-2.25,0.73-4.51,2.01-6.42C80.52,34.75,77.94,35,77.49,35.67L77.49,35.67z"/>
</g>
<g>
<path class="st1" d="M90.6,37.34c-1.25,10.99-2.5,21.98-3.75,32.98c-0.63,5.53-1.26,11.07-1.89,16.6
c-0.13,1.18-0.42,2.44-0.37,3.63c0.03,0.68,0.24,1.39,0.94,1.6c0.79,0.23,1.92-0.14,2.61-0.5c1.05-0.55,1.76-1.69,2.51-2.57
c4.06-4.73,8.11-9.46,12.17-14.18c0.27-0.32-0.96-0.19-1.02-0.17c-0.5,0.09-1.18,0.25-1.53,0.66c-2.32,2.7-4.63,5.4-6.95,8.11
c-1.16,1.35-2.32,2.7-3.48,4.05c-0.53,0.62-1.06,1.24-1.59,1.86c-0.59,0.69-1.28,1.81-2.07,2.26c0.41-0.14,0.82-0.28,1.24-0.43
c0.38-0.07-0.1-0.52-0.17-0.83c-0.08-0.36-0.07-0.72-0.04-1.08c0.08-1.18,0.27-2.36,0.4-3.54c0.27-2.36,0.54-4.72,0.8-7.08
c0.53-4.65,1.06-9.3,1.58-13.94c1.06-9.37,2.13-18.74,3.19-28.11C93.22,36.42,90.68,36.61,90.6,37.34L90.6,37.34z"/>
</g>
</g>
<g>
<g>
<path class="st2" d="M438.84-92.55c0.97,0,1.94-0.78,2.9-0.78C440.76-93.33,439.8-92.55,438.84-92.55L438.84-92.55z"/>
</g>
</g>
</svg>
